<svg xmlns="http://www.w3.org/2000/svg" viewBox="0 0 519.85 438.44"><defs><style>.cls-1{opacity:0.17;}.cls-2{fill:#f2f2f2;}.cls-3{fill:#fff;}.cls-4{fill:#f7d77f;}.cls-5{fill:#004686;}.cls-6{fill:#e6e6e6;}.cls-7{opacity:0.28;}.cls-8{fill:#153e49;}.cls-9{fill:#113542;}.cls-10{fill:#1a1a1a;}.cls-11{fill:#5d7a7f;}.cls-12{fill:#dae7e8;}.cls-13{fill:#688689;}.cls-14{fill:#8cad81;}</style></defs><g id="object"><path class="cls-1" d="M441.12,37.21l-.24-.29H123.16l.72.78H121A33.46,33.46,0,0,0,87.51,71.15V409.36H59.46l-.24.29a44.63,44.63,0,0,0,0,57.14l.24.29H377.61A36.42,36.42,0,0,0,414,430.66V95.42s0-.28,0-.78h26.86l.24-.29A44.61,44.61,0,0,0,441.12,37.21Z" transform="translate(-38.47 -28.64)"/><path class="cls-2" d="M112.75,86.36H430.48l.24-.28a44.65,44.65,0,0,0,0-57.15l-.24-.29H112.75l1.57,1.7A40,40,0,0,1,113,86.09Z" transform="translate(-38.47 -28.64)"/><path class="cls-3" d="M367.2,458.81H77.1V62.88a33.46,33.46,0,0,1,33.46-33.46H394.37s29.46-1.75,28.86,0c-20.66.41-19.61,57.72-19.61,57.72V422.39A36.42,36.42,0,0,1,367.2,458.81Z" transform="translate(-38.47 -28.64)"/><path class="cls-2" d="M366.78,458.81H49.06l-.25-.29a44.65,44.65,0,0,1,0-57.15l.25-.28H366.78l-1.57,1.69c-14.74,15.86-17.25,42.93,1.57,56Z" transform="translate(-38.47 -28.64)"/><rect class="cls-4" x="109.21" y="64.81" width="197.38" height="16.61"/><rect class="cls-5" x="245.81" y="347.04" width="88.25" height="5.41"/><rect class="cls-6" x="81.75" y="112.62" width="252.32" height="6.75"/><rect class="cls-6" x="81.75" y="145.74" width="252.32" height="6.75"/><rect class="cls-6" x="81.75" y="178.87" width="252.32" height="6.75"/><rect class="cls-6" x="81.75" y="211.99" width="252.32" height="6.75"/><rect class="cls-6" x="81.75" y="245.11" width="252.32" height="6.75"/><rect class="cls-6" x="81.75" y="311.36" width="252.32" height="6.75"/><rect class="cls-6" x="81.75" y="278.24" width="252.32" height="6.75"/><path class="cls-7" d="M557.94,118.52l-2.9-1.79-.78-.48-1.4-.86,4.52-7.36a1,1,0,0,0-.32-1.35L532.14,91.36a1,1,0,0,0-1.35.32l-4.53,7.37-1.67-1a.78.78,0,0,0-1.08.26l-1.94,3.16a.77.77,0,0,0,.26,1.08l1.66,1-39.05,63.54a1,1,0,0,0,.32,1.35l2.28,1.4L401.85,308.46l-1.77-1.09a1.36,1.36,0,0,0-1.86.44l0,0a1.35,1.35,0,0,0,.45,1.86l2,1.21-.45,1-2.09-1.28a1.34,1.34,0,0,0-1.86.44v0a1.35,1.35,0,0,0,.44,1.87l2.39,1.47-7.92,17.69h0l-8.73,19.5-4.8,3-4.37,18.56,2.41,1.48,15-12.3.8-5.22,14.24-16.11h0l0,0,12.9-14.59,2.13,1.31a1.36,1.36,0,0,0,1.87-.45v0a1.36,1.36,0,0,0-.45-1.87l-1.72-1.06.74-.83,1.56,1a1.35,1.35,0,0,0,1.86-.45l0,0a1.35,1.35,0,0,0-.45-1.86l-1.29-.8,81.26-132.23,3.93-6.39,1.65,1a1,1,0,0,0,1.35-.32l39.05-63.55.73.45a.79.79,0,0,1,.26,1.09l-25.67,41.76a.79.79,0,0,0,.26,1.08l3,1.85a.79.79,0,0,0,1.09-.26L558.2,119.6A.78.78,0,0,0,557.94,118.52Z" transform="translate(-38.47 -28.64)"/><polygon class="cls-8" points="360.26 308.7 345.62 299.93 355.61 276.96 450.61 118.48 471.75 131.15 376.81 289.52 360.26 308.7"/><rect class="cls-9" x="466.5" y="116.97" width="90.48" height="31.22" rx="0.98" transform="translate(96.44 474.69) rotate(-59.06)"/><path class="cls-10" d="M545.63,111.38l-.78-.47L515,93a.79.79,0,0,0-1.08.27L512,96.45a.8.8,0,0,0,.27,1.09L541.45,115a.8.8,0,0,1,.27,1.09l-25.2,42a.79.79,0,0,0,.27,1.08l3,1.81a.79.79,0,0,0,1.09-.27l27.92-46.57a.79.79,0,0,0-.28-1.08Z" transform="translate(-38.47 -28.64)"/><polygon class="cls-11" points="346.19 324.97 337.11 319.52 355.61 276.96 376.75 289.63 346.19 324.97"/><polygon class="cls-12" points="346.19 324.97 337.11 319.52 332.34 322.6 328.18 341.2 330.6 342.65 345.45 330.19 346.19 324.97"/><rect class="cls-13" x="402.83" y="296.67" width="2.74" height="30.95" rx="1.36" transform="translate(-109.82 469.69) rotate(-59.06)"/><rect class="cls-13" x="400.86" y="299.96" width="2.74" height="30.95" rx="1.36" transform="translate(-113.6 469.6) rotate(-59.06)"/><path class="cls-8" d="M376.54,360.29a2,2,0,1,1-.68-2.73A2,2,0,0,1,376.54,360.29Z" transform="translate(-38.47 -28.64)"/><rect class="cls-8" x="365.01" y="364.89" width="12.33" height="0.96" transform="translate(-171.52 467.21) rotate(-59.06)"/><polygon class="cls-7" points="439.75 136.59 460.89 149.26 449.2 168.76 439.75 136.59"/><rect class="cls-14" x="109.21" y="64.81" width="27.85" height="16.61"/></g></svg>